# This file uses centimeters as units for non-parametric coordinates.

mtllib arcadecab.mtl
g default
v -0.500000 -0.580818 0.500000
v 0.500000 -0.580818 0.500000
v -0.500000 0.580818 0.500000
v 0.500000 0.580818 0.500000
v -0.500000 0.580818 -0.500000
v 0.500000 0.580818 -0.500000
v -0.500000 -0.580818 -0.500000
v 0.500000 -0.580818 -0.500000
v 0.200000 -0.580818 0.500000
v 0.200000 -0.580818 -0.500000
v 0.200000 0.580818 -0.500000
v 0.200000 0.580818 0.500000
v -0.500000 1.354648 0.500000
v -0.076612 1.354648 0.500000
v -0.076612 1.354648 -0.500000
v -0.500000 1.354648 -0.500000
v -0.500000 1.608126 0.500000
v -0.076612 1.608126 0.500000
v -0.076612 1.608126 -0.500000
v -0.500000 1.608126 -0.500000
v 0.461247 1.354648 -0.500000
v 0.461247 1.354648 0.500000
v 0.461247 1.608126 -0.500000
v 0.461247 1.608126 0.500000
v -0.500000 0.580818 -0.400000
v -0.500000 1.354648 -0.400000
v -0.500000 1.608126 -0.400000
v -0.076612 1.608126 -0.400000
v 0.461247 1.608126 -0.400000
v 0.461247 1.354648 -0.400000
v -0.076612 1.354648 -0.400000
v 0.200000 0.580818 -0.400000
v 0.500000 0.580818 -0.400000
v 0.500000 -0.580818 -0.400000
v 0.200000 -0.580818 -0.400000
v -0.500000 -0.580818 -0.400000
v -0.500000 0.580818 0.410000
v -0.500000 1.354648 0.410000
v -0.500000 1.608126 0.410000
v -0.076612 1.608126 0.410000
v 0.461247 1.608126 0.410000
v 0.461247 1.354648 0.410000
v -0.076612 1.354648 0.410000
v 0.200000 0.580818 0.410000
v 0.500000 0.580818 0.410000
v 0.500000 -0.580818 0.410000
v 0.200000 -0.580818 0.410000
v -0.500000 -0.580818 0.410000
v -0.500000 0.967733 0.500000
v 0.061694 0.967733 0.500000
v 0.061694 0.967733 0.410000
v 0.061694 0.967733 -0.400000
v 0.061694 0.967733 -0.500000
v -0.500000 0.967733 -0.500000
v -0.500000 0.967733 -0.400000
v -0.500000 0.967733 0.410000
vt 0.375000 0.000000
vt 0.625000 0.000000
vt 0.375000 0.250000
vt 0.625000 0.250000
vt 0.375000 0.500000
vt 0.625000 0.500000
vt 0.375000 0.750000
vt 0.625000 0.750000
vt 0.375000 1.000000
vt 0.625000 1.000000
vt 0.875000 0.000000
vt 0.875000 0.250000
vt 0.125000 0.000000
vt 0.125000 0.250000
vt 0.550000 0.000000
vt 0.550000 1.000000
vt 0.550000 0.750000
vt 0.550000 0.500000
vt 0.550000 0.250000
vt 0.375000 0.250000
vt 0.550000 0.250000
vt 0.550000 0.500000
vt 0.375000 0.500000
vt 0.375000 0.250000
vt 0.550000 0.250000
vt 0.550000 0.500000
vt 0.375000 0.500000
vt 0.550000 0.250046
vt 0.550000 0.499959
vt 0.550000 0.500000
vt 0.550000 0.250000
vt 0.150000 0.250000
vt 0.375000 0.475000
vt 0.375000 0.475000
vt 0.375000 0.475000
vt 0.550000 0.475000
vt 0.550000 0.475000
vt 0.550000 0.475000
vt 0.550000 0.475000
vt 0.550000 0.475000
vt 0.625000 0.475000
vt 0.850000 0.250000
vt 0.625000 0.775000
vt 0.850000 0.000000
vt 0.550000 0.775000
vt 0.150000 0.000000
vt 0.375000 0.775000
vt 0.352500 0.250000
vt 0.375000 0.272500
vt 0.375000 0.272500
vt 0.375000 0.272500
vt 0.550000 0.272500
vt 0.550000 0.272500
vt 0.550000 0.272516
vt 0.550000 0.272500
vt 0.550000 0.272500
vt 0.625000 0.272500
vt 0.647500 0.250000
vt 0.625000 0.977500
vt 0.647500 0.000000
vt 0.550000 0.977500
vt 0.352500 0.000000
vt 0.375000 0.977500
vt 0.375000 0.250000
vt 0.541377 0.250053
vt 0.548916 0.272478
vt 0.548907 0.475014
vt 0.541376 0.499970
vt 0.375000 0.500000
vt 0.375000 0.475000
vt 0.375000 0.272500
vt 0.550000 0.475319
vt 0.550000 0.500161
vt 0.550000 0.272679
vt 0.550000 0.250354
vn 0.000000 0.000000 1.000000
vn 0.000000 0.000000 1.000000
vn 0.000000 0.000000 1.000000
vn 0.000000 0.000000 1.000000
vn -0.000000 1.000000 0.000000
vn -0.000000 1.000000 0.000000
vn -0.000000 1.000000 0.000000
vn -0.000000 1.000000 0.000000
vn 0.000000 0.000000 -1.000000
vn 0.000000 0.000000 -1.000000
vn 0.000000 0.000000 -1.000000
vn 0.000000 0.000000 -1.000000
vn 0.000000 -1.000000 0.000000
vn 0.000000 -1.000000 0.000000
vn 0.000000 -1.000000 0.000000
vn 0.000000 -1.000000 0.000000
vn 1.000000 0.000000 0.000000
vn 1.000000 0.000000 0.000000
vn 1.000000 0.000000 0.000000
vn 1.000000 0.000000 0.000000
vn -1.000000 0.000000 0.000000
vn -1.000000 0.000000 0.000000
vn -1.000000 0.000000 0.000000
vn -1.000000 0.000000 0.000000
vn -0.000000 -1.000000 0.000000
vn -0.000000 -1.000000 0.000000
vn 0.000000 0.000000 -1.000000
vn 0.000000 0.000000 -1.000000
vn 0.000000 1.000000 0.000000
vn 0.000000 1.000000 0.000000
vn 0.000000 1.000000 0.000002
vn 0.000000 1.000000 0.000002
vn 0.000000 0.000000 1.000000
vn 0.000000 0.000000 1.000000
vn 0.000000 0.000000 1.000000
vn 0.000000 0.000000 1.000000
vn 0.000000 0.000000 1.000000
vn 0.000000 0.000000 1.000000
vn 0.695654 -0.718377 0.000001
vn 0.695654 -0.718377 0.000001
vn 0.695654 -0.718377 0.000001
vn 0.695654 -0.718377 0.000001
vn 0.000000 0.000000 -1.000000
vn 0.000000 0.000000 -1.000000
vn 0.000000 0.000000 -1.000000
vn 0.000000 0.000000 -1.000000
vn -1.000000 0.000000 0.000000
vn -1.000000 0.000000 0.000000
vn -1.000000 0.000000 0.000000
vn -1.000000 0.000000 0.000000
vn 0.000000 0.000000 1.000000
vn 0.000000 0.000000 1.000000
vn 0.000000 0.000000 1.000000
vn 0.000000 0.000000 1.000000
vn 1.000000 0.000000 0.000000
vn 1.000000 0.000000 0.000000
vn 1.000000 0.000000 0.000000
vn 1.000000 0.000000 0.000000
vn 0.000000 0.000000 -1.000000
vn 0.000000 0.000000 -1.000000
vn 0.000000 0.000000 -1.000000
vn 0.000000 0.000000 -1.000000
vn -1.000000 0.000000 0.000000
vn -1.000000 0.000000 0.000000
vn -1.000000 0.000000 0.000000
vn -1.000000 0.000000 0.000000
vn 0.000000 -1.000000 0.000000
vn 0.000000 -1.000000 0.000000
vn 0.000000 -1.000000 0.000000
vn 0.000000 -1.000000 0.000000
vn 0.000000 0.000000 -1.000000
vn 0.000000 0.000000 -1.000000
vn 0.000000 0.000000 -1.000000
vn 0.000000 0.000000 -1.000000
vn 0.000000 1.000000 0.000000
vn 0.000000 1.000000 -0.000000
vn 0.000000 1.000000 -0.000000
vn 0.000000 1.000000 0.000000
vn 0.000000 0.000000 1.000000
vn 0.000000 0.000000 1.000000
vn 0.000000 0.000000 1.000000
vn 0.000000 0.000000 1.000000
vn -1.000000 0.000000 0.000000
vn -1.000000 0.000000 0.000000
vn -1.000000 0.000000 0.000000
vn -1.000000 0.000000 0.000000
vn -0.000000 1.000000 -0.000000
vn -0.000000 1.000000 -0.000000
vn 0.000000 1.000000 -0.000000
vn 0.000000 1.000000 -0.000000
vn 1.000000 0.000000 -0.000000
vn 1.000000 0.000000 -0.000000
vn 0.000000 -1.000000 0.000000
vn 0.000000 -1.000000 0.000000
vn 0.000000 -1.000000 0.000000
vn 0.000000 -1.000000 0.000000
vn 0.941648 0.336600 0.000000
vn 0.941648 0.336600 -0.000000
vn 0.941648 0.336600 -0.000000
vn 0.941648 0.336600 0.000000
vn 0.000000 1.000000 0.000000
vn 0.000000 1.000000 0.000000
vn 1.000000 0.000000 0.000000
vn 1.000000 0.000000 0.000000
vn -0.000000 -1.000000 0.000000
vn 0.000000 -1.000000 0.000000
vn 0.000000 -1.000000 0.000000
vn -1.000000 0.000000 0.000000
vn -1.000000 0.000000 0.000000
vn -1.000000 0.000000 0.000000
vn -1.000000 0.000000 0.000000
vn -1.000000 0.000000 0.000000
vn -1.000000 0.000000 0.000000
vn -0.000000 1.000000 -0.000002
vn -0.000000 1.000000 -0.000002
vn 0.000000 1.000000 0.000000
vn 0.000000 1.000000 0.000000
vn 1.000000 0.000000 -0.000000
vn 1.000000 0.000000 -0.000000
vn 0.000000 -1.000000 -0.000001
vn 0.000000 -1.000000 -0.000001
vn 0.000000 -1.000000 -0.000001
vn 0.000000 -1.000000 -0.000001
vn 0.695654 -0.718377 0.000000
vn 0.695654 -0.718377 0.000000
vn 0.695654 -0.718377 0.000000
vn 0.695654 -0.718377 0.000000
vn 0.000000 1.000000 0.000000
vn 0.000000 1.000000 0.000000
vn 1.000000 0.000000 0.000000
vn 1.000000 0.000000 0.000000
vn -0.000000 -1.000000 0.000000
vn -0.000000 -1.000000 0.000000
vn 0.000000 -1.000000 0.000000
vn -1.000000 0.000000 0.000000
vn -1.000000 0.000000 0.000000
vn 0.000000 0.000000 1.000000
vn 0.000000 0.000000 1.000000
vn 0.941648 0.336600 0.000000
vn 0.941648 0.336600 -0.000000
vn 0.941648 0.336600 0.000000
vn 0.941648 0.336600 0.000000
vn 0.941648 0.336600 0.000000
vn 0.941648 0.336600 0.000000
vn 0.000000 0.000000 -1.000000
vn 0.000000 0.000000 -1.000000
vn -1.000000 0.000000 0.000000
vn -1.000000 0.000000 0.000000
vn -1.000000 0.000000 0.000000
vn -1.000000 0.000000 0.000000
vn 0.000000 0.000000 1.000000
vn 0.000000 0.000000 1.000000
vn 0.000000 0.000000 1.000000
vn 0.000000 0.000000 -1.000000
vn 0.000000 0.000000 -1.000000
vn 0.000000 0.000000 -1.000000
vn 0.000000 1.000000 0.000000
vn 0.000000 1.000000 0.000000
vn 0.000000 1.000000 0.000000
vn 0.000000 1.000000 0.000000
vn 0.000000 0.000000 -1.000000
vn 0.000000 0.000000 -1.000000
vn 0.000000 0.000000 -1.000000
vn 0.000000 1.000000 0.000001
vn 0.000000 1.000000 0.000001
vn 0.000000 1.000000 0.000001
vn 0.000000 1.000000 0.000001
vn 0.000000 0.000000 1.000000
vn 0.000000 0.000000 1.000000
vn 0.000000 0.000000 1.000000
s 1
g pCube1
usemtl initialShadingGroup
f 12/19/1 9/15/2 2/2/3 4/4/4
s 2
f 11/18/5 32/40/6 33/41/7 6/6/8
s 3
f 10/17/9 11/18/10 6/6/11 8/8/12
s 4
f 34/43/13 35/45/14 10/17/15 8/8/16
s 5
f 33/42/17 34/44/18 8/11/19 6/12/20
s 6
f 7/13/21 36/46/22 25/32/23 5/14/24
s 4
f 7/7/25 10/17/15 35/45/14 36/47/26
s 3
f 5/5/27 11/18/10 10/17/9 7/7/28
s 7
f 27/35/29 28/36/30 19/26/31 20/27/32
s 1
f 1/1/33 9/15/2 12/19/1 3/3/34
s 8
f 49/64/35 50/65/36 14/21/37 13/20/38
s off
f 30/72/39 52/67/40 53/68/41 21/73/42
s 9
f 53/68/43 54/69/44 16/23/45 15/22/46
s 10
f 54/69/47 55/70/48 26/34/49 16/23/50
s off
f 13/20/51 14/21/52 18/25/53 17/24/54
s 11
f 29/37/55 30/38/56 21/29/57 23/30/58
s off
f 15/22/59 16/23/60 20/27/61 19/26/62
s 12
f 16/23/63 26/34/64 27/35/65 20/27/66
s off
f 30/38/67 31/39/68 15/22/69 21/29/70
f 15/22/71 19/26/72 23/30/73 21/29/74
s 13
f 19/26/75 28/36/76 29/37/77 23/30/78
s off
f 18/25/79 14/21/80 22/28/81 24/31/82
s 10
f 26/34/49 55/70/48 56/71/83 38/50/84
s 12
f 27/35/65 26/34/64 38/50/85 39/51/86
s 7
f 39/51/87 40/52/88 28/36/30 27/35/29
s 13
f 29/37/77 28/36/76 40/52/89 41/53/90
s 11
f 41/53/91 42/54/92 30/38/56 29/37/55
s off
f 42/54/93 43/55/94 31/39/95 30/38/96
s 14
f 43/55/97 51/66/98 52/67/99 31/39/100
s 2
f 33/41/7 32/40/6 44/56/101 45/57/102
s 5
f 45/58/103 46/60/104 34/44/18 33/42/17
s 4
f 46/59/105 47/61/106 35/45/14 34/43/13
f 36/47/26 35/45/14 47/61/106 48/63/107
s 6
f 25/32/23 36/46/22 48/62/108 37/48/109
s 10
f 38/50/84 56/71/83 49/64/110 13/20/111
s 12
f 39/51/86 38/50/85 13/20/112 17/24/113
s 7
f 17/24/114 18/25/115 40/52/88 39/51/87
s 13
f 41/53/90 40/52/89 18/25/116 24/31/117
s 11
f 22/28/118 42/54/92 41/53/91 24/31/119
s off
f 14/21/120 43/55/121 42/54/122 22/28/123
f 50/65/124 51/66/125 42/74/126 22/75/127
s 2
f 45/57/102 44/56/101 12/19/128 4/4/129
s 5
f 2/2/130 46/60/104 45/58/103 4/4/131
s 4
f 9/16/132 47/61/106 46/59/105 2/10/133
f 48/63/107 47/61/106 9/16/132 1/9/134
s 6
f 37/48/109 48/62/108 1/1/135 3/3/136
s 8
f 3/3/137 12/19/138 50/65/36 49/64/35
s 14
f 12/19/139 44/56/140 51/66/98 50/65/141
f 52/67/99 51/66/98 44/56/140 32/40/142
f 53/68/143 52/67/99 32/40/142 11/18/144
s 9
f 11/18/145 5/5/146 54/69/44 53/68/43
s 10
f 5/5/147 25/33/148 55/70/48 54/69/47
f 56/71/83 55/70/48 25/33/148 37/49/149
f 49/64/110 56/71/83 37/49/149 3/3/150
s off
f 31/39/151 52/67/152 30/72/153
f 53/68/154 15/22/155 21/73/156
f 15/22/157 31/39/158 30/72/159 21/73/160
f 51/66/161 43/55/162 42/74/163
f 43/55/164 14/21/165 22/75/166 42/74/167
f 14/21/168 50/65/169 22/75/170
